<?xml version="1.0" encoding="UTF-8" standalone="no"?>
<svg
   xmlns:dc="http://purl.org/dc/elements/1.1/"
   xmlns:cc="http://creativecommons.org/ns#"
   xmlns:rdf="http://www.w3.org/1999/02/22-rdf-syntax-ns#"
   xmlns:svg="http://www.w3.org/2000/svg"
   xmlns="http://www.w3.org/2000/svg"
   xmlns:sodipodi="http://sodipodi.sourceforge.net/DTD/sodipodi-0.dtd"
   xmlns:inkscape="http://www.inkscape.org/namespaces/inkscape"
   fill="#000000"
   version="1.1"
   id="Capa_1"
   width="800px"
   height="800px"
   viewBox="0 0 95.333 95.333"
   xml:space="preserve"
   sodipodi:docname="facebook-icon-white.svg"
   inkscape:version="1.0.2 (e86c870879, 2021-01-15)"><metadata
   id="metadata11"><rdf:RDF><cc:Work
       rdf:about=""><dc:format>image/svg+xml</dc:format><dc:type
         rdf:resource="http://purl.org/dc/dcmitype/StillImage" /><dc:title></dc:title></cc:Work></rdf:RDF></metadata><defs
   id="defs9" /><sodipodi:namedview
   pagecolor="#ffffff"
   bordercolor="#666666"
   borderopacity="1"
   objecttolerance="10"
   gridtolerance="10"
   guidetolerance="10"
   inkscape:pageopacity="0"
   inkscape:pageshadow="2"
   inkscape:window-width="1403"
   inkscape:window-height="847"
   id="namedview7"
   showgrid="false"
   inkscape:zoom="0.31129252"
   inkscape:cx="400"
   inkscape:cy="400"
   inkscape:window-x="45"
   inkscape:window-y="45"
   inkscape:window-maximized="0"
   inkscape:current-layer="Capa_1" />
<g
   id="g4"
   style="fill:#ffffff;fill-opacity:1">
	<path
   d="M 93.333,0 H 2 C 0.896,0 0,0.896 0,2 v 91.332 c 0,1.104 0.896,2 2,2 H 50.525 V 63.477 H 40.284 c -0.885,0 -1.602,-0.717 -1.602,-1.602 V 48.961 c 0,-0.885 0.717,-1.603 1.602,-1.603 h 10.242 v -8.913 c 0,-11.744 7.395,-19.332 18.839,-19.332 l 10.188,0.016 c 0.883,10e-4 1.6,0.718 1.6,1.602 v 11.991 c 0,0.885 -0.717,1.602 -1.602,1.602 l -6.863,0.003 c -4.729,0 -5.595,1.844 -5.595,5.475 v 7.556 h 11.979 c 0.425,0 0.832,0.169 1.133,0.47 0.3,0.301 0.469,0.708 0.469,1.133 L 80.67,61.876 c 0,0.885 -0.717,1.603 -1.602,1.603 H 67.092 v 31.854 h 26.24 c 1.104,0 2,-0.896 2,-2 V 2 C 95.333,0.895 94.438,0 93.333,0 Z"
   id="path2"
   style="fill:#ffffff;fill-opacity:1" />
</g>
</svg>
