<?xml version="1.0" encoding="UTF-8" standalone="no"?>
<svg
   xmlns:dc="http://purl.org/dc/elements/1.1/"
   xmlns:cc="http://creativecommons.org/ns#"
   xmlns:rdf="http://www.w3.org/1999/02/22-rdf-syntax-ns#"
   xmlns:svg="http://www.w3.org/2000/svg"
   xmlns="http://www.w3.org/2000/svg"
   xmlns:sodipodi="http://sodipodi.sourceforge.net/DTD/sodipodi-0.dtd"
   xmlns:inkscape="http://www.inkscape.org/namespaces/inkscape"
   width="46"
   height="47"
   viewBox="0 0 46 47"
   fill="none"
   version="1.1"
   id="svg4"
   sodipodi:docname="ordericonwhite.svg"
   inkscape:version="1.0.2 (e86c870879, 2021-01-15)">
  <metadata
     id="metadata10">
    <rdf:RDF>
      <cc:Work
         rdf:about="">
        <dc:format>image/svg+xml</dc:format>
        <dc:type
           rdf:resource="http://purl.org/dc/dcmitype/StillImage" />
        <dc:title></dc:title>
      </cc:Work>
    </rdf:RDF>
  </metadata>
  <defs
     id="defs8" />
  <sodipodi:namedview
     pagecolor="#ffffff"
     bordercolor="#666666"
     borderopacity="1"
     objecttolerance="10"
     gridtolerance="10"
     guidetolerance="10"
     inkscape:pageopacity="0"
     inkscape:pageshadow="2"
     inkscape:window-width="1478"
     inkscape:window-height="952"
     id="namedview6"
     showgrid="false"
     inkscape:zoom="10.638587"
     inkscape:cx="22.530013"
     inkscape:cy="23.5"
     inkscape:window-x="45"
     inkscape:window-y="45"
     inkscape:window-maximized="0"
     inkscape:current-layer="svg4" />
  <path
     d="M39.7273 28.5378V35.095H46V39.4665H39.7273V46.0238H35.5455V39.4665H29.2727V35.095H35.5455V28.5378H39.7273ZM23 24.1663C20.7 24.1663 18.8182 26.1335 18.8182 28.5378C18.8182 30.9421 20.7 32.9093 23 32.9093C25.3 32.9093 27.1818 30.9421 27.1818 28.5378C27.1818 26.1335 25.3 24.1663 23 24.1663ZM25.8227 41.6523H9.40909C7.48545 41.6523 5.87545 40.2971 5.39455 38.4611L0.0836363 18.1992C-7.45058e-08 18.0025 0 17.8058 0 17.6091C0 16.4069 0.940909 15.4233 2.09091 15.4233H12.1064L21.2645 1.10669C21.6618 0.472827 22.3309 0.123108 23 0.123108C23.6691 0.123108 24.3382 0.472827 24.7355 1.08484L33.8936 15.4233H43.9091C45.0591 15.4233 46 16.4069 46 17.6091L45.9373 18.1992L43.9091 25.9368C42.7173 25.2592 41.3791 24.6909 39.9782 24.4067L41.1909 19.7948H4.83L9.40909 37.2808H25.0909C25.0909 38.8108 25.3627 40.2752 25.8227 41.6523ZM17.1455 15.4233H28.8545L23 6.2432L17.1455 15.4233Z"
     fill="#495E57"
     id="path2"
     style="fill:#ffffff;fill-opacity:1" />
</svg>
