<?xml version="1.0" encoding="UTF-8" standalone="no"?>
<svg
   xmlns:dc="http://purl.org/dc/elements/1.1/"
   xmlns:cc="http://creativecommons.org/ns#"
   xmlns:rdf="http://www.w3.org/1999/02/22-rdf-syntax-ns#"
   xmlns:svg="http://www.w3.org/2000/svg"
   xmlns="http://www.w3.org/2000/svg"
   xmlns:sodipodi="http://sodipodi.sourceforge.net/DTD/sodipodi-0.dtd"
   xmlns:inkscape="http://www.inkscape.org/namespaces/inkscape"
   width="144.34036mm"
   height="57.806236mm"
   viewBox="0 0 144.34036 57.806236"
   version="1.1"
   id="svg836"
   inkscape:version="1.0.2 (e86c870879, 2021-01-15)"
   sodipodi:docname="youtube-logo-white.svg">
  <defs
     id="defs830" />
  <sodipodi:namedview
     id="base"
     pagecolor="#ffffff"
     bordercolor="#666666"
     borderopacity="1.0"
     inkscape:pageopacity="0.0"
     inkscape:pageshadow="2"
     inkscape:zoom="0.35"
     inkscape:cx="272.7692"
     inkscape:cy="109.24016"
     inkscape:document-units="mm"
     inkscape:current-layer="layer1"
     inkscape:document-rotation="0"
     showgrid="false"
     inkscape:window-width="1412"
     inkscape:window-height="908"
     inkscape:window-x="45"
     inkscape:window-y="45"
     inkscape:window-maximized="0" />
  <metadata
     id="metadata833">
    <rdf:RDF>
      <cc:Work
         rdf:about="">
        <dc:format>image/svg+xml</dc:format>
        <dc:type
           rdf:resource="http://purl.org/dc/dcmitype/StillImage" />
        <dc:title></dc:title>
      </cc:Work>
    </rdf:RDF>
  </metadata>
  <g
     inkscape:label="Layer 1"
     inkscape:groupmode="layer"
     id="layer1"
     transform="translate(-33.66315,-119.26354)">
    <path
       id="path131"
       d="M 116.80368,128.6321 H 98.799999 v 5.51232 h 6.068621 v 32.46727 h 5.86618 v -32.46727 h 6.06888 z m 9.58805,31.2291 c -0.48886,0.61236 -1.02578,1.11517 -1.61024,1.50843 -0.58498,0.39377 -1.06867,0.58963 -1.45263,0.58963 -0.48885,0 -0.84232,-0.14883 -1.0604,-0.44597 -0.21807,-0.29714 -0.32711,-0.77721 -0.32711,-1.44177 v -21.47673 h -5.20898 v 23.41718 c 0,1.66812 0.30541,2.9192 0.91622,3.75378 0.61082,0.83405 1.51877,1.25056 2.72283,1.25056 0.97669,0 1.98489,-0.29869 3.02307,-0.89348 1.0387,-0.59583 2.03709,-1.46451 2.99724,-2.60398 v 3.09284 h 5.20898 v -28.0169 h -5.20898 z m 20.18171,-21.62039 c -0.8077,0 -1.60559,0.22286 -2.3952,0.66766 -0.7891,0.44571 -1.53427,1.09528 -2.23604,1.95027 V 128.6321 h -5.25963 v 37.97959 h 5.25963 v -2.15388 c 0.68419,0.85318 1.42575,1.48467 2.22364,1.89395 0.79788,0.40927 1.70583,0.61391 2.72386,0.61391 1.54306,0 2.72283,-0.52762 3.53829,-1.58491 0.81545,-1.0573 1.22421,-2.58176 1.22421,-4.57389 v -15.54285 c 0,-2.28836 -0.4346,-4.03153 -1.30328,-5.22797 -0.86816,-1.19631 -2.127,-1.79524 -3.77548,-1.79524 z m -0.28215,21.80435 c 0,0.89297 -0.1509,1.53686 -0.45114,1.93064 -0.30024,0.39325 -0.76894,0.59014 -1.40508,0.59014 -0.44235,0 -0.86196,-0.10025 -1.25987,-0.30179 -0.39843,-0.2005 -0.80926,-0.52917 -1.233,-0.98444 v -17.4594 c 0.35347,-0.38486 0.71107,-0.66933 1.07384,-0.85343 0.36225,-0.18332 0.72967,-0.2757 1.1007,-0.2757 0.70642,0 1.24644,0.24573 1.61747,0.73562 0.37156,0.48989 0.55708,1.20742 0.55708,2.15245 z m 24.61348,-6.78459 v -7.1329 c 0,-2.65901 -0.64027,-4.69687 -1.91875,-6.11449 -1.2795,-1.41761 -3.1104,-2.12635 -5.4932,-2.12635 -2.33112,0 -4.2323,0.76571 -5.70353,2.29624 -1.47226,1.53143 -2.20813,3.51245 -2.20813,5.9446 v 12.57494 c 0,2.69699 0.67024,4.81573 2.01021,6.35672 1.34049,1.54047 3.17603,2.31097 5.50716,2.31097 2.59312,0 4.54287,-0.72709 5.84822,-2.18023 1.30535,-1.45314 1.95802,-3.6158 1.95802,-6.48746 v -2.10426 h -5.36091 v 1.94717 c 0,1.64847 -0.17208,2.71456 -0.51573,3.19618 -0.34365,0.48214 -0.94775,0.72296 -1.81126,0.72296 -0.82992,0 -1.41594,-0.28422 -1.75959,-0.85473 -0.34364,-0.56999 -0.51521,-1.59164 -0.51521,-3.06441 v -5.28495 z m -9.9627,-7.18509 c 0,-1.17254 0.17984,-2.01332 0.54209,-2.52143 0.36122,-0.50733 0.95601,-0.76171 1.7849,-0.76171 0.79324,0 1.37098,0.25438 1.73271,0.76171 0.36122,0.50811 0.54209,1.34889 0.54209,2.52143 v 2.836 h -4.60179 z M 116.80368,128.22747 H 98.799999 v 5.51245 h 6.068621 v 32.46714 h 5.86618 v -32.46714 h 6.06888 z m 9.58805,31.2291 c -0.48886,0.61237 -1.02578,1.11518 -1.61024,1.50844 -0.58498,0.39377 -1.06867,0.58962 -1.45263,0.58962 -0.48885,0 -0.84232,-0.14883 -1.0604,-0.44596 -0.21807,-0.29663 -0.32711,-0.77722 -0.32711,-1.44178 v -21.47672 h -5.20898 v 23.41717 c 0,1.66812 0.30541,2.9192 0.91622,3.75378 0.61082,0.83405 1.51877,1.25057 2.72283,1.25057 0.97669,0 1.98489,-0.29869 3.02307,-0.89349 1.0387,-0.59583 2.03709,-1.46451 2.99724,-2.60397 v 3.09283 h 5.20898 v -28.01689 h -5.20898 z m 20.18171,-21.62039 c -0.8077,0 -1.60559,0.22286 -2.3952,0.66779 -0.7891,0.44558 -1.53427,1.09516 -2.23604,1.95014 v -12.22664 h -5.25963 v 37.97959 h 5.25963 v -2.15387 c 0.68419,0.85318 1.42575,1.48466 2.22364,1.89394 0.79788,0.40928 1.70583,0.61392 2.72386,0.61392 1.54306,0 2.72283,-0.52762 3.53829,-1.58492 0.81545,-1.0573 1.22421,-2.58176 1.22421,-4.57388 V 144.8594 c 0,-2.28836 -0.4346,-4.03154 -1.30328,-5.22785 -0.86816,-1.19631 -2.127,-1.79537 -3.77548,-1.79537 z m -0.28215,21.80436 c 0,0.89297 -0.1509,1.53737 -0.45114,1.93063 -0.30024,0.39377 -0.76894,0.59014 -1.40508,0.59014 -0.44235,0 -0.86196,-0.10025 -1.25987,-0.30179 -0.39843,-0.2005 -0.80926,-0.52916 -1.233,-0.98443 v -17.4594 c 0.35347,-0.38473 0.71107,-0.66921 1.07384,-0.85331 0.36225,-0.18332 0.72967,-0.27582 1.1007,-0.27582 0.70642,0 1.24644,0.24572 1.61747,0.73561 0.37156,0.49002 0.55708,1.20742 0.55708,2.15258 z m 24.61348,-6.7846 v -7.1329 c 0,-2.65888 -0.64027,-4.69687 -1.91875,-6.11435 -1.2795,-1.41762 -3.1104,-2.12649 -5.4932,-2.12649 -2.33112,0 -4.2323,0.76572 -5.70353,2.29624 -1.47226,1.53143 -2.20813,3.51245 -2.20813,5.9446 v 12.57494 c 0,2.697 0.67024,4.81573 2.01021,6.35672 1.34049,1.54047 3.17603,2.31097 5.50716,2.31097 2.59312,0 4.54287,-0.72708 5.84822,-2.18023 1.30535,-1.45314 1.95802,-3.6158 1.95802,-6.48746 v -2.10426 h -5.36091 v 1.94717 c 0,1.64848 -0.17208,2.71456 -0.51573,3.19619 -0.34365,0.48214 -0.94775,0.72346 -1.81126,0.72346 -0.82992,0 -1.41594,-0.28473 -1.75959,-0.85524 -0.34364,-0.56947 -0.51521,-1.59164 -0.51521,-3.06441 v -5.28495 z m -9.9627,-7.18496 c 0,-1.17267 0.17984,-2.01344 0.54209,-2.52155 0.36122,-0.50734 0.95601,-0.76171 1.7849,-0.76171 0.79324,0 1.37098,0.25437 1.73271,0.76171 0.36122,0.50811 0.54209,1.34888 0.54209,2.52155 v 2.83587 h -4.60179 z m -73.461276,-7.02554 v 28.01689 h -5.208855 v -3.09283 c -0.960146,1.13946 -1.958925,2.00814 -2.997232,2.60397 -1.038309,0.5948 -2.046644,0.89349 -3.02333,0.89349 -1.20419,0 -2.112145,-0.41651 -2.722962,-1.25109 -0.610814,-0.83406 -0.915834,-2.08514 -0.915834,-3.75326 v -23.41717 h 5.208984 v 21.47672 c 0,0.66456 0.109038,1.14463 0.327113,1.44177 0.218075,0.29715 0.571283,0.44597 1.060399,0.44597 0.384085,0 0.867649,-0.19637 1.452367,-0.58963 0.584719,-0.39377 1.121249,-0.89607 1.610495,-1.50843 v -21.2664 z m -34.410819,6.40516 c 0,-2.16976 0.700862,-3.89718 2.10349,-5.18353 1.402628,-1.28649 3.287138,-1.92973 5.654564,-1.92973 2.155682,0 3.921726,0.67877 5.298255,2.03476 1.376532,1.35599 2.064731,3.10149 2.064731,5.23663 v 14.47056 c 0,2.39779 -0.675669,4.27881 -2.025197,5.64359 -1.349661,1.36477 -3.208203,2.04742 -5.574856,2.04742 -2.27893,0 -4.102592,-0.70487 -5.469691,-2.11305 -1.367745,-1.40818 -2.051296,-3.30264 -2.051296,-5.68286 z m 5.360656,15.04831 c 0,0.77153 0.184873,1.36632 0.556295,1.78697 0.370522,0.42013 0.899946,0.62942 1.58905,0.62942 0.706419,0 1.266719,-0.21394 1.682327,-0.64286 0.414832,-0.42943 0.622702,-1.02009 0.622702,-1.77353 v -15.2585 c 0,-0.61237 -0.212648,-1.10704 -0.636138,-1.48312 -0.423489,-0.3762 -0.979783,-0.56495 -1.668891,-0.56495 -0.63536,0 -1.152125,0.18875 -1.549516,0.56495 -0.397521,0.37608 -0.595829,0.87075 -0.595829,1.48312 z M 33.66315,128.68274 h 5.908297 l 3.806227,15.18098 h 0.368323 l 3.629237,-15.18098 h 5.960488 l -6.827231,22.22009 v 15.7595 h -5.86644 v -15.04999 z m 131.30141,-7.23108 0.0336,0.002 h 0.0336 c 5.94383,0 10.77919,4.77206 10.77919,10.6372 v 0.062 l 0.005,0.0616 c 0.39326,5.13224 0.58446,10.49807 0.56844,15.9476 0.016,5.45936 -0.17518,10.82518 -0.56844,15.95768 l -0.005,0.0615 v 0.062 c 0,5.86579 -4.83536,10.6376 -10.77919,10.6376 h -0.0336 l -0.0336,0.001 c -9.49347,0.39636 -19.54919,0.58757 -29.88654,0.56845 -10.34356,0.0191 -20.39876,-0.17209 -29.89236,-0.56845 l -0.0337,-0.001 h -0.0337 c -5.943825,0 -10.779318,-4.77181 -10.779318,-10.6376 v -0.062 l -0.0048,-0.0615 c -0.393388,-5.12991 -0.584718,-10.49548 -0.568571,-15.94838 -0.01627,-5.45961 0.174924,-10.82543 0.568441,-15.9569 l 0.0048,-0.0616 v -0.062 c 0,-5.86514 4.835491,-10.6372 10.779188,-10.6372 h 0.0339 l 0.0337,-0.002 c 9.49219,-0.39622 19.54791,-0.58743 29.8863,-0.56856 10.3451,-0.0189 20.40081,0.17234 29.89274,0.56856 z m 12.46488,10.63914 c 0,-6.766 -5.55367,-12.25584 -12.3977,-12.25584 -9.76787,-0.40773 -19.76261,-0.58873 -29.95682,-0.57012 -10.19421,-0.0186 -20.18843,0.16239 -29.95696,0.57012 -6.843381,0 -12.397562,5.48984 -12.397562,12.25584 -0.410829,5.35859 -0.589113,10.7173 -0.573093,16.07602 -0.0159,5.35859 0.162264,10.71717 0.57322,16.07602 0,6.76599 5.554054,12.2561 12.397695,12.2561 9.76827,0.40773 19.76249,0.58859 29.9567,0.56947 10.19421,0.0191 20.18895,-0.16174 29.95682,-0.56947 6.84403,0 12.3977,-5.49011 12.3977,-12.2561 0.41083,-5.35885 0.58911,-10.71743 0.57309,-16.07602 0.016,-5.35872 -0.16226,-10.71743 -0.57309,-16.07602 z"
       style="fill:#ffffff;fill-opacity:1;stroke-width:0.264583" />
  </g>
</svg>
