<?xml version="1.0" encoding="UTF-8" standalone="no"?>
<svg
   xmlns:dc="http://purl.org/dc/elements/1.1/"
   xmlns:cc="http://creativecommons.org/ns#"
   xmlns:rdf="http://www.w3.org/1999/02/22-rdf-syntax-ns#"
   xmlns:svg="http://www.w3.org/2000/svg"
   xmlns="http://www.w3.org/2000/svg"
   xmlns:sodipodi="http://sodipodi.sourceforge.net/DTD/sodipodi-0.dtd"
   xmlns:inkscape="http://www.inkscape.org/namespaces/inkscape"
   version="1.1"
   id="Layer_1"
   x="0px"
   y="0px"
   viewBox="0 0 144 144"
   enable-background="new 0 0 144 144"
   xml:space="preserve"
   sodipodi:docname="pinterest-icon-white.svg"
   inkscape:version="1.0.2 (e86c870879, 2021-01-15)"><metadata
   id="metadata46"><rdf:RDF><cc:Work
       rdf:about=""><dc:format>image/svg+xml</dc:format><dc:type
         rdf:resource="http://purl.org/dc/dcmitype/StillImage" /><dc:title></dc:title></cc:Work></rdf:RDF></metadata><defs
   id="defs44" /><sodipodi:namedview
   pagecolor="#ffffff"
   bordercolor="#666666"
   borderopacity="1"
   objecttolerance="10"
   gridtolerance="10"
   guidetolerance="10"
   inkscape:pageopacity="0"
   inkscape:pageshadow="2"
   inkscape:window-width="1403"
   inkscape:window-height="891"
   id="namedview42"
   showgrid="false"
   inkscape:zoom="1.7294029"
   inkscape:cx="72"
   inkscape:cy="72"
   inkscape:window-x="45"
   inkscape:window-y="45"
   inkscape:window-maximized="0"
   inkscape:current-layer="Layer_1" />
<g
   id="g39"
   style="fill:#ffffff;fill-opacity:1">
	<g
   id="g37"
   style="fill:#ffffff;fill-opacity:1">
		<path
   fill="#bd081c"
   d="M 71.9,5.4 C 35.1,5.4 5.3,35.2 5.3,72 c 0,28.2 17.5,52.3 42.3,62 -0.6,-5.3 -1.1,-13.3 0.2,-19.1 1.2,-5.2 7.8,-33.1 7.8,-33.1 0,0 -2,-4 -2,-9.9 0,-9.3 5.4,-16.2 12,-16.2 5.7,0 8.4,4.3 8.4,9.4 0,5.7 -3.6,14.3 -5.5,22.2 -1.6,6.6 3.3,12 9.9,12 11.8,0 20.9,-12.5 20.9,-30.5 0,-15.9 -11.5,-27.1 -27.8,-27.1 -18.9,0 -30.1,14.2 -30.1,28.9 0,5.7 2.2,11.9 5,15.2 0.5,0.7 0.6,1.2 0.5,1.9 -0.5,2.1 -1.6,6.6 -1.8,7.5 -0.3,1.2 -1,1.5 -2.2,0.9 -8.3,-3.9 -13.5,-16 -13.5,-25.8 0,-21 15.3,-40.3 44,-40.3 23.1,0 41,16.5 41,38.4 0,22.9 -14.5,41.4 -34.5,41.4 -6.7,0 -13.1,-3.5 -15.3,-7.6 0,0 -3.3,12.7 -4.1,15.8 -1.5,5.8 -5.6,13 -8.3,17.5 6.2,1.9 12.8,3 19.7,3 36.8,0 66.6,-29.8 66.6,-66.6 0,-36.7 -29.8,-66.5 -66.6,-66.5 z"
   id="path35"
   style="fill:#ffffff;fill-opacity:1" />
	</g>
</g>
</svg>
