<?xml version="1.0" encoding="UTF-8" standalone="no"?>
<svg
   xmlns:dc="http://purl.org/dc/elements/1.1/"
   xmlns:cc="http://creativecommons.org/ns#"
   xmlns:rdf="http://www.w3.org/1999/02/22-rdf-syntax-ns#"
   xmlns:svg="http://www.w3.org/2000/svg"
   xmlns="http://www.w3.org/2000/svg"
   xmlns:sodipodi="http://sodipodi.sourceforge.net/DTD/sodipodi-0.dtd"
   xmlns:inkscape="http://www.inkscape.org/namespaces/inkscape"
   viewBox="4 4 42 42"
   width="2500"
   height="2500"
   version="1.1"
   id="svg50"
   sodipodi:docname="tiktok-icon-white.svg"
   inkscape:version="1.0.2 (e86c870879, 2021-01-15)">
  <metadata
     id="metadata56">
    <rdf:RDF>
      <cc:Work
         rdf:about="">
        <dc:format>image/svg+xml</dc:format>
        <dc:type
           rdf:resource="http://purl.org/dc/dcmitype/StillImage" />
        <dc:title></dc:title>
      </cc:Work>
    </rdf:RDF>
  </metadata>
  <defs
     id="defs54" />
  <sodipodi:namedview
     pagecolor="#ffffff"
     bordercolor="#666666"
     borderopacity="1"
     objecttolerance="10"
     gridtolerance="10"
     guidetolerance="10"
     inkscape:pageopacity="0"
     inkscape:pageshadow="2"
     inkscape:window-width="1403"
     inkscape:window-height="925"
     id="namedview52"
     showgrid="false"
     inkscape:zoom="0.099613605"
     inkscape:cx="1250"
     inkscape:cy="1250"
     inkscape:window-x="45"
     inkscape:window-y="45"
     inkscape:window-maximized="0"
     inkscape:current-layer="svg50" />
  <path
     d="M41 4H9C6.243 4 4 6.243 4 9v32c0 2.757 2.243 5 5 5h32c2.757 0 5-2.243 5-5V9c0-2.757-2.243-5-5-5m-3.994 18.323a7.482 7.482 0 0 1-.69.035 7.492 7.492 0 0 1-6.269-3.388v11.537a8.527 8.527 0 1 1-8.527-8.527c.178 0 .352.016.527.027v4.202c-.175-.021-.347-.053-.527-.053a4.351 4.351 0 1 0 0 8.704c2.404 0 4.527-1.894 4.527-4.298l.042-19.594h4.02a7.488 7.488 0 0 0 6.901 6.685v4.67"
     id="path48"
     style="stroke-width:1.0000032;stroke-miterlimit:4;stroke-dasharray:none;fill:#ffffff;fill-opacity:1" />
</svg>
